<mxfile host="app.diagrams.net" agent="Mozilla/5.0 (Macintosh; Intel Mac OS X 10_15_7) AppleWebKit/537.36 (KHTML, like Gecko) Chrome/126.0.0.0 Safari/537.36" version="24.7.4" pages="5">
  <diagram id="4rBeRc0VbkWU1G6_L1bp" name="gx-cloud-architecture">
    <mxGraphModel dx="887" dy="531" grid="0" gridSize="10" guides="1" tooltips="1" connect="1" arrows="1" fold="1" page="1" pageScale="1" pageWidth="1100" pageHeight="850" math="0" shadow="0">
      <root>
        <mxCell id="0" />
        <mxCell id="1" parent="0" />
        <mxCell id="M-V8-W1wnded0g0h19G2-1" value="" style="rounded=0;whiteSpace=wrap;html=1;strokeColor=#A6A8AB;fillColor=none;perimeterSpacing=0;" parent="1" vertex="1">
          <mxGeometry x="682" y="40" width="97" height="291" as="geometry" />
        </mxCell>
        <mxCell id="TUDYuU7qML7kbOazX5dM-1" value="" style="rounded=0;whiteSpace=wrap;html=1;strokeColor=#A6A8AB;fillColor=none;dashed=1;perimeterSpacing=0;dashPattern=8 8;" parent="1" vertex="1">
          <mxGeometry x="150" y="357" width="150" height="113" as="geometry" />
        </mxCell>
        <mxCell id="TUDYuU7qML7kbOazX5dM-2" value="" style="rounded=0;whiteSpace=wrap;html=1;strokeColor=#A6A8AB;fillColor=none;" parent="1" vertex="1">
          <mxGeometry x="150" y="40" width="480" height="291" as="geometry" />
        </mxCell>
        <mxCell id="TUDYuU7qML7kbOazX5dM-3" value="" style="rounded=1;whiteSpace=wrap;html=1;strokeWidth=1;fillColor=#FF9B67;" parent="1" vertex="1">
          <mxGeometry x="300" y="110" width="300" height="170" as="geometry" />
        </mxCell>
        <mxCell id="BZEc9UFTMsOLQ-Rg-sFl-2" style="edgeStyle=orthogonalEdgeStyle;rounded=0;orthogonalLoop=1;jettySize=auto;html=1;exitX=0.5;exitY=0;exitDx=0;exitDy=0;entryX=0.5;entryY=1;entryDx=0;entryDy=0;startArrow=blockThin;startFill=1;endArrow=blockThin;endFill=1;" edge="1" parent="1" source="TUDYuU7qML7kbOazX5dM-6" target="TUDYuU7qML7kbOazX5dM-11">
          <mxGeometry relative="1" as="geometry" />
        </mxCell>
        <mxCell id="TUDYuU7qML7kbOazX5dM-6" value="GX OSS Client" style="rounded=1;whiteSpace=wrap;html=1;fillColor=#d0d2d3;strokeWidth=1;" parent="1" vertex="1">
          <mxGeometry x="180" y="375" width="90" height="40" as="geometry" />
        </mxCell>
        <mxCell id="TUDYuU7qML7kbOazX5dM-8" value="GX Cloud Backend" style="text;html=1;strokeColor=none;fillColor=none;align=center;verticalAlign=middle;whiteSpace=wrap;rounded=0;" parent="1" vertex="1">
          <mxGeometry x="300" y="110" width="300" height="50" as="geometry" />
        </mxCell>
        <mxCell id="TUDYuU7qML7kbOazX5dM-9" value="GX Cloud&lt;br&gt;Web UI" style="rounded=1;whiteSpace=wrap;html=1;strokeWidth=1;fillColor=#FF9B67;" parent="1" vertex="1">
          <mxGeometry x="180" y="110" width="90" height="70" as="geometry" />
        </mxCell>
        <mxCell id="TUDYuU7qML7kbOazX5dM-11" value="GX Cloud&amp;nbsp;&lt;div&gt;API&lt;/div&gt;" style="rounded=1;whiteSpace=wrap;html=1;strokeWidth=1;fillColor=#FF9B67;" parent="1" vertex="1">
          <mxGeometry x="180" y="205" width="90" height="75" as="geometry" />
        </mxCell>
        <mxCell id="TUDYuU7qML7kbOazX5dM-14" value="&lt;b&gt;&lt;font style=&quot;font-size: 16px;&quot;&gt;GX Cloud&lt;/font&gt;&lt;/b&gt;" style="text;html=1;strokeColor=none;fillColor=none;align=left;verticalAlign=middle;whiteSpace=wrap;rounded=0;spacing=8;" parent="1" vertex="1">
          <mxGeometry x="160" y="40" width="100" height="40" as="geometry" />
        </mxCell>
        <mxCell id="TUDYuU7qML7kbOazX5dM-16" value="Data&lt;br&gt;Assets" style="rounded=1;whiteSpace=wrap;html=1;fillColor=#FCEFC3;" parent="1" vertex="1">
          <mxGeometry x="320" y="165" width="80" height="40" as="geometry" />
        </mxCell>
        <mxCell id="TUDYuU7qML7kbOazX5dM-17" value="Schedules" style="rounded=1;whiteSpace=wrap;html=1;fillColor=#FCEFC3;" parent="1" vertex="1">
          <mxGeometry x="370" y="215" width="80" height="40" as="geometry" />
        </mxCell>
        <mxCell id="TUDYuU7qML7kbOazX5dM-18" value="Expectations" style="rounded=1;whiteSpace=wrap;html=1;fillColor=#FCEFC3;" parent="1" vertex="1">
          <mxGeometry x="410" y="165" width="80" height="40" as="geometry" />
        </mxCell>
        <mxCell id="TUDYuU7qML7kbOazX5dM-19" value="Validation History" style="rounded=1;whiteSpace=wrap;html=1;fillColor=#FCEFC3;" parent="1" vertex="1">
          <mxGeometry x="500" y="165" width="80" height="40" as="geometry" />
        </mxCell>
        <mxCell id="TUDYuU7qML7kbOazX5dM-20" value="Descriptive Metrics" style="rounded=1;whiteSpace=wrap;html=1;fillColor=#FCEFC3;" parent="1" vertex="1">
          <mxGeometry x="460" y="215" width="80" height="40" as="geometry" />
        </mxCell>
        <mxCell id="TUDYuU7qML7kbOazX5dM-23" value="" style="endArrow=blockThin;startArrow=blockThin;html=1;rounded=0;jumpStyle=none;startFill=1;endFill=1;exitX=0;exitY=0.5;exitDx=0;exitDy=0;" parent="1" edge="1">
          <mxGeometry width="50" height="50" relative="1" as="geometry">
            <mxPoint x="300" y="144.63999999999996" as="sourcePoint" />
            <mxPoint x="270" y="144.88999999999996" as="targetPoint" />
          </mxGeometry>
        </mxCell>
        <mxCell id="TUDYuU7qML7kbOazX5dM-27" value="&lt;b&gt;Local Environment (optional)&lt;/b&gt;" style="text;html=1;strokeColor=none;fillColor=none;align=left;verticalAlign=middle;whiteSpace=wrap;rounded=0;spacing=8;" parent="1" vertex="1">
          <mxGeometry x="150" y="430" width="130" height="30" as="geometry" />
        </mxCell>
        <mxCell id="6sEfLIlwxJHCh4AfJCH5-2" value="&lt;b&gt;Your Data Sources&lt;/b&gt;" style="text;html=1;strokeColor=none;fillColor=none;align=left;verticalAlign=middle;whiteSpace=wrap;rounded=0;" parent="1" vertex="1">
          <mxGeometry x="692" y="43" width="100" height="40" as="geometry" />
        </mxCell>
        <mxCell id="BZEc9UFTMsOLQ-Rg-sFl-4" style="edgeStyle=orthogonalEdgeStyle;rounded=0;orthogonalLoop=1;jettySize=auto;html=1;startArrow=blockThin;startFill=1;endArrow=blockThin;endFill=1;" edge="1" parent="1" source="TUDYuU7qML7kbOazX5dM-11">
          <mxGeometry relative="1" as="geometry">
            <mxPoint x="300" y="243" as="targetPoint" />
            <Array as="points">
              <mxPoint x="290" y="243" />
              <mxPoint x="300" y="243" />
            </Array>
          </mxGeometry>
        </mxCell>
        <mxCell id="BZEc9UFTMsOLQ-Rg-sFl-5" value="" style="shape=cylinder3;whiteSpace=wrap;html=1;boundedLbl=1;backgroundOutline=1;size=15;strokeWidth=1;fillColor=#D0D2D3;" vertex="1" parent="1">
          <mxGeometry x="704.5" y="85" width="50.5" height="68" as="geometry" />
        </mxCell>
        <mxCell id="BZEc9UFTMsOLQ-Rg-sFl-13" value="" style="shape=cylinder3;whiteSpace=wrap;html=1;boundedLbl=1;backgroundOutline=1;size=15;strokeWidth=1;fillColor=#D0D2D3;" vertex="1" parent="1">
          <mxGeometry x="704.5" y="245" width="51.5" height="68" as="geometry" />
        </mxCell>
        <mxCell id="BZEc9UFTMsOLQ-Rg-sFl-18" style="edgeStyle=orthogonalEdgeStyle;rounded=0;orthogonalLoop=1;jettySize=auto;html=1;entryX=1;entryY=0.5;entryDx=0;entryDy=0;" edge="1" parent="1">
          <mxGeometry relative="1" as="geometry">
            <mxPoint x="704.5" y="123" as="sourcePoint" />
            <mxPoint x="600" y="199" as="targetPoint" />
            <Array as="points">
              <mxPoint x="705" y="116" />
              <mxPoint x="652" y="116" />
              <mxPoint x="652" y="199" />
            </Array>
          </mxGeometry>
        </mxCell>
        <mxCell id="BZEc9UFTMsOLQ-Rg-sFl-20" value="Metadata &amp;amp;&lt;div&gt;Validation&amp;nbsp;&lt;div&gt;&lt;div&gt;Results&lt;/div&gt;&lt;/div&gt;&lt;/div&gt;" style="edgeLabel;html=1;align=center;verticalAlign=middle;resizable=0;points=[];" vertex="1" connectable="0" parent="BZEc9UFTMsOLQ-Rg-sFl-18">
          <mxGeometry x="0.2308" relative="1" as="geometry">
            <mxPoint x="-4" y="19" as="offset" />
          </mxGeometry>
        </mxCell>
        <mxCell id="BZEc9UFTMsOLQ-Rg-sFl-19" value="" style="shape=cylinder3;whiteSpace=wrap;html=1;boundedLbl=1;backgroundOutline=1;size=15;strokeWidth=1;fillColor=#D0D2D3;" vertex="1" parent="1">
          <mxGeometry x="704.5" y="165" width="50.5" height="68" as="geometry" />
        </mxCell>
        <mxCell id="BZEc9UFTMsOLQ-Rg-sFl-21" style="edgeStyle=orthogonalEdgeStyle;rounded=0;orthogonalLoop=1;jettySize=auto;html=1;exitX=0;exitY=0.5;exitDx=0;exitDy=0;exitPerimeter=0;endArrow=none;endFill=0;" edge="1" parent="1" source="BZEc9UFTMsOLQ-Rg-sFl-19">
          <mxGeometry relative="1" as="geometry">
            <mxPoint x="715" y="129" as="sourcePoint" />
            <mxPoint x="679" y="199" as="targetPoint" />
          </mxGeometry>
        </mxCell>
        <mxCell id="BZEc9UFTMsOLQ-Rg-sFl-23" style="edgeStyle=orthogonalEdgeStyle;rounded=0;orthogonalLoop=1;jettySize=auto;html=1;exitX=0;exitY=0.5;exitDx=0;exitDy=0;exitPerimeter=0;endArrow=none;endFill=0;" edge="1" parent="1" source="BZEc9UFTMsOLQ-Rg-sFl-13">
          <mxGeometry relative="1" as="geometry">
            <mxPoint x="715" y="209" as="sourcePoint" />
            <mxPoint x="652" y="216" as="targetPoint" />
            <Array as="points">
              <mxPoint x="652" y="279" />
            </Array>
          </mxGeometry>
        </mxCell>
      </root>
    </mxGraphModel>
  </diagram>
  <diagram id="AdkBUQRsRMOlIh0LbK3u" name="org-hosted-cloud-only">
    <mxGraphModel dx="1620" dy="995" grid="1" gridSize="10" guides="1" tooltips="1" connect="1" arrows="1" fold="1" page="1" pageScale="1" pageWidth="1100" pageHeight="850" math="0" shadow="0">
      <root>
        <mxCell id="0" />
        <mxCell id="1" parent="0" />
        <mxCell id="t9HsivGxSzip43qTokhW-1" value="" style="rounded=0;whiteSpace=wrap;html=1;strokeColor=#A6A8AB;fillColor=none;dashed=1;dashPattern=8 8;" parent="1" vertex="1">
          <mxGeometry x="180" y="80" width="430" height="140" as="geometry" />
        </mxCell>
        <mxCell id="T9oxZPr1RcMpwuZcRDzO-29" value="" style="rounded=0;whiteSpace=wrap;html=1;strokeColor=#A6A8AB;fillColor=none;perimeterSpacing=0;" parent="1" vertex="1">
          <mxGeometry x="280" y="250" width="290" height="110" as="geometry" />
        </mxCell>
        <mxCell id="T9oxZPr1RcMpwuZcRDzO-11" value="" style="shape=cylinder3;whiteSpace=wrap;html=1;boundedLbl=1;backgroundOutline=1;size=15;strokeWidth=1;fillColor=#D0D2D3;" parent="1" vertex="1">
          <mxGeometry x="460" y="267" width="50" height="60" as="geometry" />
        </mxCell>
        <mxCell id="T9oxZPr1RcMpwuZcRDzO-12" value="Data Stores" style="text;html=1;strokeColor=none;fillColor=none;align=left;verticalAlign=middle;whiteSpace=wrap;rounded=0;" parent="1" vertex="1">
          <mxGeometry x="516" y="285" width="52.5" height="30" as="geometry" />
        </mxCell>
        <mxCell id="T9oxZPr1RcMpwuZcRDzO-21" value="" style="endArrow=blockThin;startArrow=blockThin;html=1;rounded=0;entryX=0.5;entryY=1;entryDx=0;entryDy=0;startFill=1;endFill=1;exitX=0.5;exitY=0;exitDx=0;exitDy=0;" parent="1" source="T9oxZPr1RcMpwuZcRDzO-27" edge="1">
          <mxGeometry width="50" height="50" relative="1" as="geometry">
            <mxPoint x="370" y="230" as="sourcePoint" />
            <mxPoint x="360" y="200" as="targetPoint" />
          </mxGeometry>
        </mxCell>
        <mxCell id="T9oxZPr1RcMpwuZcRDzO-22" value="" style="endArrow=none;startArrow=blockThin;html=1;rounded=0;startFill=1;endFill=0;exitX=0.75;exitY=0;exitDx=0;exitDy=0;edgeStyle=orthogonalEdgeStyle;entryX=0.5;entryY=1;entryDx=0;entryDy=0;" parent="1" source="T9oxZPr1RcMpwuZcRDzO-27" target="t9HsivGxSzip43qTokhW-6" edge="1">
          <mxGeometry width="50" height="50" relative="1" as="geometry">
            <mxPoint x="510" y="290" as="sourcePoint" />
            <mxPoint x="495" y="200" as="targetPoint" />
            <Array as="points">
              <mxPoint x="385" y="230" />
              <mxPoint x="515" y="230" />
            </Array>
          </mxGeometry>
        </mxCell>
        <mxCell id="T9oxZPr1RcMpwuZcRDzO-27" value="GX Agent" style="rounded=1;whiteSpace=wrap;html=1;glass=0;strokeWidth=1;fillColor=#D0D2D3;" parent="1" vertex="1">
          <mxGeometry x="310" y="280" width="100" height="40" as="geometry" />
        </mxCell>
        <mxCell id="T9oxZPr1RcMpwuZcRDzO-31" value="" style="sketch=0;aspect=fixed;pointerEvents=1;shadow=0;dashed=0;html=1;strokeColor=none;labelPosition=center;verticalLabelPosition=bottom;verticalAlign=top;align=center;fillColor=#404041;shape=mxgraph.azure.user" parent="1" vertex="1">
          <mxGeometry x="79.99999999999999" y="160" width="37.6" height="40" as="geometry" />
        </mxCell>
        <mxCell id="t9HsivGxSzip43qTokhW-2" value="GX Cloud&lt;br&gt;Web UI" style="rounded=1;whiteSpace=wrap;html=1;strokeWidth=1;fillColor=#FF9B67;" parent="1" vertex="1">
          <mxGeometry x="200" y="90" width="80" height="110" as="geometry" />
        </mxCell>
        <mxCell id="t9HsivGxSzip43qTokhW-3" value="&lt;b&gt;GX Cloud&lt;/b&gt;" style="text;html=1;strokeColor=none;fillColor=none;align=right;verticalAlign=top;whiteSpace=wrap;rounded=0;spacing=0;spacingLeft=6;spacingTop=2;spacingRight=6;" parent="1" vertex="1">
          <mxGeometry x="540" y="80" width="70" height="30" as="geometry" />
        </mxCell>
        <mxCell id="t9HsivGxSzip43qTokhW-4" value="GX Cloud Data Storage" style="rounded=1;whiteSpace=wrap;html=1;strokeWidth=1;fillColor=#FF9B67;" parent="1" vertex="1">
          <mxGeometry x="310" y="120" width="160" height="30" as="geometry" />
        </mxCell>
        <mxCell id="t9HsivGxSzip43qTokhW-5" value="GX Cloud API" style="rounded=1;whiteSpace=wrap;html=1;strokeWidth=1;fillColor=#FF9B67;" parent="1" vertex="1">
          <mxGeometry x="310" y="170" width="100" height="30" as="geometry" />
        </mxCell>
        <mxCell id="t9HsivGxSzip43qTokhW-6" value="GX Cloud Message Broker" style="rounded=1;whiteSpace=wrap;html=1;strokeWidth=1;fillColor=#FF9B67;" parent="1" vertex="1">
          <mxGeometry x="440" y="170" width="150" height="30" as="geometry" />
        </mxCell>
        <mxCell id="t9HsivGxSzip43qTokhW-7" value="" style="endArrow=blockThin;html=1;rounded=0;startArrow=blockThin;startFill=1;endFill=1;endSize=3;startSize=3;entryX=0;entryY=0.5;entryDx=0;entryDy=0;" parent="1" target="t9HsivGxSzip43qTokhW-4" edge="1">
          <mxGeometry width="50" height="50" relative="1" as="geometry">
            <mxPoint x="280" y="134.87" as="sourcePoint" />
            <mxPoint x="300" y="134.87" as="targetPoint" />
          </mxGeometry>
        </mxCell>
        <mxCell id="t9HsivGxSzip43qTokhW-8" value="" style="endArrow=blockThin;html=1;rounded=0;edgeStyle=orthogonalEdgeStyle;endFill=1;endSize=3;jumpStyle=arc;jumpSize=6;exitX=1;exitY=0.25;exitDx=0;exitDy=0;entryX=0.5;entryY=0;entryDx=0;entryDy=0;" parent="1" source="t9HsivGxSzip43qTokhW-2" target="t9HsivGxSzip43qTokhW-6" edge="1">
          <mxGeometry width="50" height="50" relative="1" as="geometry">
            <mxPoint x="500" y="-10" as="sourcePoint" />
            <mxPoint x="650" y="150" as="targetPoint" />
            <Array as="points">
              <mxPoint x="280" y="105" />
              <mxPoint x="515" y="105" />
            </Array>
          </mxGeometry>
        </mxCell>
        <mxCell id="t9HsivGxSzip43qTokhW-9" value="" style="endArrow=blockThin;startArrow=blockThin;html=1;rounded=0;startFill=1;endFill=1;endSize=3;startSize=3;" parent="1" edge="1">
          <mxGeometry width="50" height="50" relative="1" as="geometry">
            <mxPoint x="359.75" y="170" as="sourcePoint" />
            <mxPoint x="359.75" y="150" as="targetPoint" />
          </mxGeometry>
        </mxCell>
        <mxCell id="8vdv1sVLfzotuIbO_P5U-1" value="&lt;b&gt;Deployment Environment&lt;/b&gt;" style="text;html=1;strokeColor=none;fillColor=none;align=left;verticalAlign=bottom;whiteSpace=wrap;rounded=0;spacing=8;spacingTop=0;spacingLeft=0;spacingRight=0;spacingBottom=0;" parent="1" vertex="1">
          <mxGeometry x="280" y="330" width="160" height="30" as="geometry" />
        </mxCell>
        <mxCell id="0Bs_VS3EV5MxnbMW8Y9J-4" value="" style="sketch=0;pointerEvents=1;shadow=0;dashed=0;html=1;strokeColor=none;fillColor=#505050;labelPosition=center;verticalLabelPosition=bottom;verticalAlign=top;outlineConnect=0;align=center;shape=mxgraph.office.users.users_two;" parent="1" vertex="1">
          <mxGeometry x="70.3" y="100" width="57" height="43" as="geometry" />
        </mxCell>
        <mxCell id="ObyTD15M_Bh984fItwjJ-1" value="" style="endArrow=none;startArrow=blockThin;html=1;rounded=0;startFill=1;endFill=0;exitX=0.5;exitY=0;exitDx=0;exitDy=0;" parent="1" edge="1">
          <mxGeometry width="50" height="50" relative="1" as="geometry">
            <mxPoint x="410" y="299.75" as="sourcePoint" />
            <mxPoint x="460" y="299.75" as="targetPoint" />
          </mxGeometry>
        </mxCell>
        <mxCell id="URANhWMuNikgXVPUzTRo-2" value="" style="endArrow=blockThin;startArrow=blockThin;html=1;rounded=0;startFill=1;endFill=1;exitX=0.5;exitY=0;exitDx=0;exitDy=0;" parent="1" edge="1">
          <mxGeometry width="50" height="50" relative="1" as="geometry">
            <mxPoint x="127.30000000000001" y="179.75" as="sourcePoint" />
            <mxPoint x="200" y="179.75" as="targetPoint" />
          </mxGeometry>
        </mxCell>
        <mxCell id="URANhWMuNikgXVPUzTRo-3" value="" style="endArrow=blockThin;startArrow=blockThin;html=1;rounded=0;startFill=1;endFill=1;exitX=0.5;exitY=0;exitDx=0;exitDy=0;" parent="1" edge="1">
          <mxGeometry width="50" height="50" relative="1" as="geometry">
            <mxPoint x="137" y="120" as="sourcePoint" />
            <mxPoint x="199.7" y="120" as="targetPoint" />
          </mxGeometry>
        </mxCell>
      </root>
    </mxGraphModel>
  </diagram>
  <diagram name="org-hosted" id="99DBTO8NIz74rKfxcll5">
    <mxGraphModel dx="1620" dy="995" grid="1" gridSize="10" guides="1" tooltips="1" connect="1" arrows="1" fold="1" page="1" pageScale="1" pageWidth="1100" pageHeight="850" math="0" shadow="0">
      <root>
        <mxCell id="eq-3WCoerHAYVFcHPi5h-0" />
        <mxCell id="eq-3WCoerHAYVFcHPi5h-1" parent="eq-3WCoerHAYVFcHPi5h-0" />
        <mxCell id="oQLRixCJjy86TP2jlr9x-1" value="" style="rounded=0;whiteSpace=wrap;html=1;strokeColor=#a6a8ab;fillColor=none;perimeterSpacing=0;" parent="eq-3WCoerHAYVFcHPi5h-1" vertex="1">
          <mxGeometry x="360" y="250" width="160" height="140" as="geometry" />
        </mxCell>
        <mxCell id="oQLRixCJjy86TP2jlr9x-6" value="&lt;b&gt;Local Environment&lt;/b&gt;" style="text;html=1;strokeColor=none;fillColor=none;align=left;verticalAlign=bottom;whiteSpace=wrap;rounded=0;spacing=0;spacingTop=2;spacingLeft=6;spacingRight=6;spacingBottom=6;" parent="eq-3WCoerHAYVFcHPi5h-1" vertex="1">
          <mxGeometry x="360" y="360" width="120" height="30" as="geometry" />
        </mxCell>
        <mxCell id="oQLRixCJjy86TP2jlr9x-24" value="" style="rounded=0;whiteSpace=wrap;html=1;strokeColor=#929497;fillColor=none;perimeterSpacing=0;" parent="eq-3WCoerHAYVFcHPi5h-1" vertex="1">
          <mxGeometry x="380" y="260" width="130" height="95" as="geometry" />
        </mxCell>
        <mxCell id="oQLRixCJjy86TP2jlr9x-25" value="&lt;b&gt;Python&lt;/b&gt;" style="text;html=1;strokeColor=none;fillColor=none;align=left;verticalAlign=bottom;whiteSpace=wrap;rounded=0;spacing=0;spacingTop=2;spacingLeft=6;spacingRight=6;spacingBottom=6;" parent="eq-3WCoerHAYVFcHPi5h-1" vertex="1">
          <mxGeometry x="380" y="325" width="60" height="30" as="geometry" />
        </mxCell>
        <mxCell id="oQLRixCJjy86TP2jlr9x-26" value="GX OSS Client" style="rounded=1;whiteSpace=wrap;html=1;glass=0;strokeWidth=1;fillColor=#D0D2D3;" parent="eq-3WCoerHAYVFcHPi5h-1" vertex="1">
          <mxGeometry x="400" y="280" width="100" height="40" as="geometry" />
        </mxCell>
        <mxCell id="DoKw3jsBEVRKxe1gsURm-0" value="" style="rounded=0;whiteSpace=wrap;html=1;strokeColor=#A6A8AB;fillColor=none;dashed=1;dashPattern=8 8;" parent="eq-3WCoerHAYVFcHPi5h-1" vertex="1">
          <mxGeometry x="270" y="80" width="430" height="140" as="geometry" />
        </mxCell>
        <mxCell id="DoKw3jsBEVRKxe1gsURm-1" value="" style="rounded=0;whiteSpace=wrap;html=1;strokeColor=#A6A8AB;fillColor=none;perimeterSpacing=0;" parent="eq-3WCoerHAYVFcHPi5h-1" vertex="1">
          <mxGeometry x="540" y="250" width="270" height="110" as="geometry" />
        </mxCell>
        <mxCell id="DoKw3jsBEVRKxe1gsURm-2" value="" style="shape=cylinder3;whiteSpace=wrap;html=1;boundedLbl=1;backgroundOutline=1;size=15;strokeWidth=1;fillColor=#D0D2D3;" parent="eq-3WCoerHAYVFcHPi5h-1" vertex="1">
          <mxGeometry x="700" y="267" width="50" height="60" as="geometry" />
        </mxCell>
        <mxCell id="DoKw3jsBEVRKxe1gsURm-3" value="Data Stores" style="text;html=1;strokeColor=none;fillColor=none;align=left;verticalAlign=middle;whiteSpace=wrap;rounded=0;" parent="eq-3WCoerHAYVFcHPi5h-1" vertex="1">
          <mxGeometry x="756" y="285" width="52.5" height="30" as="geometry" />
        </mxCell>
        <mxCell id="DoKw3jsBEVRKxe1gsURm-4" value="" style="endArrow=blockThin;startArrow=blockThin;html=1;rounded=0;entryX=0.5;entryY=1;entryDx=0;entryDy=0;startFill=1;endFill=1;exitX=0.5;exitY=0;exitDx=0;exitDy=0;" parent="eq-3WCoerHAYVFcHPi5h-1" source="oQLRixCJjy86TP2jlr9x-26" edge="1">
          <mxGeometry width="50" height="50" relative="1" as="geometry">
            <mxPoint x="460" y="230" as="sourcePoint" />
            <mxPoint x="450" y="200" as="targetPoint" />
          </mxGeometry>
        </mxCell>
        <mxCell id="DoKw3jsBEVRKxe1gsURm-5" value="" style="endArrow=none;startArrow=blockThin;html=1;rounded=0;startFill=1;endFill=0;exitX=0.5;exitY=0;exitDx=0;exitDy=0;edgeStyle=orthogonalEdgeStyle;entryX=0.5;entryY=1;entryDx=0;entryDy=0;" parent="eq-3WCoerHAYVFcHPi5h-1" source="DoKw3jsBEVRKxe1gsURm-6" target="DoKw3jsBEVRKxe1gsURm-12" edge="1">
          <mxGeometry width="50" height="50" relative="1" as="geometry">
            <mxPoint x="600" y="290" as="sourcePoint" />
            <mxPoint x="585" y="200" as="targetPoint" />
            <Array as="points">
              <mxPoint x="605" y="280" />
            </Array>
          </mxGeometry>
        </mxCell>
        <mxCell id="DoKw3jsBEVRKxe1gsURm-6" value="GX Agent" style="rounded=1;whiteSpace=wrap;html=1;glass=0;strokeWidth=1;fillColor=#D0D2D3;" parent="eq-3WCoerHAYVFcHPi5h-1" vertex="1">
          <mxGeometry x="555" y="280" width="100" height="40" as="geometry" />
        </mxCell>
        <mxCell id="DoKw3jsBEVRKxe1gsURm-7" value="" style="sketch=0;aspect=fixed;pointerEvents=1;shadow=0;dashed=0;html=1;strokeColor=none;labelPosition=center;verticalLabelPosition=bottom;verticalAlign=top;align=center;fillColor=#404041;shape=mxgraph.azure.user" parent="eq-3WCoerHAYVFcHPi5h-1" vertex="1">
          <mxGeometry x="300" y="280" width="37.6" height="40" as="geometry" />
        </mxCell>
        <mxCell id="DoKw3jsBEVRKxe1gsURm-8" value="GX Cloud&lt;br&gt;Web UI" style="rounded=1;whiteSpace=wrap;html=1;strokeWidth=1;fillColor=#FF9B67;" parent="eq-3WCoerHAYVFcHPi5h-1" vertex="1">
          <mxGeometry x="290" y="90" width="80" height="110" as="geometry" />
        </mxCell>
        <mxCell id="DoKw3jsBEVRKxe1gsURm-9" value="&lt;b&gt;GX Cloud&lt;/b&gt;" style="text;html=1;strokeColor=none;fillColor=none;align=right;verticalAlign=top;whiteSpace=wrap;rounded=0;spacing=0;spacingLeft=6;spacingTop=2;spacingRight=6;" parent="eq-3WCoerHAYVFcHPi5h-1" vertex="1">
          <mxGeometry x="630" y="80" width="70" height="30" as="geometry" />
        </mxCell>
        <mxCell id="DoKw3jsBEVRKxe1gsURm-10" value="GX Cloud Data Storage" style="rounded=1;whiteSpace=wrap;html=1;strokeWidth=1;fillColor=#FF9B67;" parent="eq-3WCoerHAYVFcHPi5h-1" vertex="1">
          <mxGeometry x="400" y="120" width="160" height="30" as="geometry" />
        </mxCell>
        <mxCell id="DoKw3jsBEVRKxe1gsURm-11" value="GX Cloud API" style="rounded=1;whiteSpace=wrap;html=1;strokeWidth=1;fillColor=#FF9B67;" parent="eq-3WCoerHAYVFcHPi5h-1" vertex="1">
          <mxGeometry x="400" y="170" width="100" height="30" as="geometry" />
        </mxCell>
        <mxCell id="DoKw3jsBEVRKxe1gsURm-12" value="GX Cloud Message Broker" style="rounded=1;whiteSpace=wrap;html=1;strokeWidth=1;fillColor=#FF9B67;" parent="eq-3WCoerHAYVFcHPi5h-1" vertex="1">
          <mxGeometry x="530" y="170" width="150" height="30" as="geometry" />
        </mxCell>
        <mxCell id="DoKw3jsBEVRKxe1gsURm-13" value="" style="endArrow=blockThin;html=1;rounded=0;startArrow=blockThin;startFill=1;endFill=1;endSize=3;startSize=3;entryX=0;entryY=0.5;entryDx=0;entryDy=0;" parent="eq-3WCoerHAYVFcHPi5h-1" target="DoKw3jsBEVRKxe1gsURm-10" edge="1">
          <mxGeometry width="50" height="50" relative="1" as="geometry">
            <mxPoint x="370" y="134.87" as="sourcePoint" />
            <mxPoint x="390" y="134.87" as="targetPoint" />
          </mxGeometry>
        </mxCell>
        <mxCell id="DoKw3jsBEVRKxe1gsURm-14" value="" style="endArrow=blockThin;html=1;rounded=0;edgeStyle=orthogonalEdgeStyle;endFill=1;endSize=3;jumpStyle=arc;jumpSize=6;exitX=1;exitY=0.25;exitDx=0;exitDy=0;entryX=0.5;entryY=0;entryDx=0;entryDy=0;" parent="eq-3WCoerHAYVFcHPi5h-1" source="DoKw3jsBEVRKxe1gsURm-8" target="DoKw3jsBEVRKxe1gsURm-12" edge="1">
          <mxGeometry width="50" height="50" relative="1" as="geometry">
            <mxPoint x="590" y="-10" as="sourcePoint" />
            <mxPoint x="740" y="150" as="targetPoint" />
            <Array as="points">
              <mxPoint x="370" y="105" />
              <mxPoint x="605" y="105" />
            </Array>
          </mxGeometry>
        </mxCell>
        <mxCell id="DoKw3jsBEVRKxe1gsURm-15" value="" style="endArrow=blockThin;startArrow=blockThin;html=1;rounded=0;startFill=1;endFill=1;endSize=3;startSize=3;" parent="eq-3WCoerHAYVFcHPi5h-1" edge="1">
          <mxGeometry width="50" height="50" relative="1" as="geometry">
            <mxPoint x="449.75" y="170" as="sourcePoint" />
            <mxPoint x="449.75" y="150" as="targetPoint" />
          </mxGeometry>
        </mxCell>
        <mxCell id="DoKw3jsBEVRKxe1gsURm-16" value="&lt;b&gt;Deployment Environment&lt;/b&gt;" style="text;html=1;strokeColor=none;fillColor=none;align=left;verticalAlign=bottom;whiteSpace=wrap;rounded=0;spacing=8;spacingTop=0;spacingLeft=0;spacingRight=0;spacingBottom=0;" parent="eq-3WCoerHAYVFcHPi5h-1" vertex="1">
          <mxGeometry x="540" y="330" width="160" height="30" as="geometry" />
        </mxCell>
        <mxCell id="DoKw3jsBEVRKxe1gsURm-17" value="" style="sketch=0;pointerEvents=1;shadow=0;dashed=0;html=1;strokeColor=none;fillColor=#505050;labelPosition=center;verticalLabelPosition=bottom;verticalAlign=top;outlineConnect=0;align=center;shape=mxgraph.office.users.users_two;" parent="eq-3WCoerHAYVFcHPi5h-1" vertex="1">
          <mxGeometry x="160.3" y="120" width="57" height="43" as="geometry" />
        </mxCell>
        <mxCell id="DoKw3jsBEVRKxe1gsURm-18" value="" style="endArrow=none;startArrow=blockThin;html=1;rounded=0;startFill=1;endFill=0;exitX=0.5;exitY=0;exitDx=0;exitDy=0;" parent="eq-3WCoerHAYVFcHPi5h-1" edge="1">
          <mxGeometry width="50" height="50" relative="1" as="geometry">
            <mxPoint x="655" y="299.88" as="sourcePoint" />
            <mxPoint x="700" y="299.88" as="targetPoint" />
          </mxGeometry>
        </mxCell>
        <mxCell id="DoKw3jsBEVRKxe1gsURm-20" value="" style="endArrow=blockThin;startArrow=blockThin;html=1;rounded=0;startFill=1;endFill=1;exitX=0.5;exitY=0;exitDx=0;exitDy=0;" parent="eq-3WCoerHAYVFcHPi5h-1" edge="1">
          <mxGeometry width="50" height="50" relative="1" as="geometry">
            <mxPoint x="227.3" y="141" as="sourcePoint" />
            <mxPoint x="290" y="141" as="targetPoint" />
          </mxGeometry>
        </mxCell>
        <mxCell id="DoKw3jsBEVRKxe1gsURm-21" value="" style="endArrow=blockThin;startArrow=blockThin;html=1;rounded=0;entryX=0.25;entryY=0;entryDx=0;entryDy=0;startFill=1;endFill=1;exitX=0.75;exitY=1;exitDx=0;exitDy=0;edgeStyle=orthogonalEdgeStyle;" parent="eq-3WCoerHAYVFcHPi5h-1" source="DoKw3jsBEVRKxe1gsURm-11" target="DoKw3jsBEVRKxe1gsURm-6" edge="1">
          <mxGeometry width="50" height="50" relative="1" as="geometry">
            <mxPoint x="460" y="290" as="sourcePoint" />
            <mxPoint x="460" y="210" as="targetPoint" />
          </mxGeometry>
        </mxCell>
        <mxCell id="DoKw3jsBEVRKxe1gsURm-23" value="" style="endArrow=blockThin;startArrow=blockThin;html=1;rounded=0;entryX=0.5;entryY=1;entryDx=0;entryDy=0;startFill=1;endFill=1;" parent="eq-3WCoerHAYVFcHPi5h-1" edge="1">
          <mxGeometry width="50" height="50" relative="1" as="geometry">
            <mxPoint x="320" y="270" as="sourcePoint" />
            <mxPoint x="320" y="200" as="targetPoint" />
          </mxGeometry>
        </mxCell>
        <mxCell id="DoKw3jsBEVRKxe1gsURm-24" value="" style="endArrow=blockThin;startArrow=blockThin;html=1;rounded=0;startFill=1;endFill=1;" parent="eq-3WCoerHAYVFcHPi5h-1" edge="1">
          <mxGeometry width="50" height="50" relative="1" as="geometry">
            <mxPoint x="340" y="300.13" as="sourcePoint" />
            <mxPoint x="400" y="299.88" as="targetPoint" />
          </mxGeometry>
        </mxCell>
      </root>
    </mxGraphModel>
  </diagram>
  <diagram id="gpO5_2mX1BeDPJTZuWjc" name="self-hosted">
    <mxGraphModel dx="810" dy="498" grid="1" gridSize="10" guides="1" tooltips="1" connect="1" arrows="1" fold="1" page="1" pageScale="1" pageWidth="1100" pageHeight="850" math="0" shadow="0">
      <root>
        <mxCell id="0" />
        <mxCell id="1" parent="0" />
        <mxCell id="V6S-97jJ4UsOQMDGhtXS-1" value="" style="rounded=0;whiteSpace=wrap;html=1;strokeColor=#929497;fillColor=none;perimeterSpacing=0;strokeWidth=1;" parent="1" vertex="1">
          <mxGeometry x="280" y="250" width="450" height="140" as="geometry" />
        </mxCell>
        <mxCell id="V6S-97jJ4UsOQMDGhtXS-2" value="" style="rounded=0;whiteSpace=wrap;html=1;strokeColor=#A6A8AB;fillColor=none;perimeterSpacing=0;" parent="1" vertex="1">
          <mxGeometry x="445" y="260" width="140" height="95" as="geometry" />
        </mxCell>
        <mxCell id="V6S-97jJ4UsOQMDGhtXS-3" value="" style="rounded=0;whiteSpace=wrap;html=1;strokeColor=#A6A8AB;fillColor=none;dashed=1;dashPattern=8 8;" parent="1" vertex="1">
          <mxGeometry x="180" y="80" width="430" height="140" as="geometry" />
        </mxCell>
        <mxCell id="V6S-97jJ4UsOQMDGhtXS-5" value="&lt;b&gt;Local Environment&lt;/b&gt;" style="text;html=1;strokeColor=none;fillColor=none;align=left;verticalAlign=bottom;whiteSpace=wrap;rounded=0;spacing=0;spacingTop=2;spacingLeft=6;spacingRight=6;spacingBottom=6;" parent="1" vertex="1">
          <mxGeometry x="280" y="360" width="120" height="30" as="geometry" />
        </mxCell>
        <mxCell id="V6S-97jJ4UsOQMDGhtXS-8" value="" style="endArrow=blockThin;startArrow=none;html=1;rounded=0;startFill=0;endFill=1;entryX=1;entryY=0.5;entryDx=0;entryDy=0;" parent="1" edge="1" target="V6S-97jJ4UsOQMDGhtXS-13">
          <mxGeometry width="50" height="50" relative="1" as="geometry">
            <mxPoint x="619.7" y="299.88" as="sourcePoint" />
            <mxPoint x="559.7" y="299.88" as="targetPoint" />
          </mxGeometry>
        </mxCell>
        <mxCell id="V6S-97jJ4UsOQMDGhtXS-9" value="" style="endArrow=blockThin;startArrow=blockThin;html=1;rounded=0;entryX=0.5;entryY=1;entryDx=0;entryDy=0;startFill=1;endFill=1;" parent="1" edge="1">
          <mxGeometry width="50" height="50" relative="1" as="geometry">
            <mxPoint x="221" y="270" as="sourcePoint" />
            <mxPoint x="221" y="200" as="targetPoint" />
          </mxGeometry>
        </mxCell>
        <mxCell id="V6S-97jJ4UsOQMDGhtXS-10" value="" style="endArrow=blockThin;startArrow=blockThin;html=1;rounded=0;entryX=0.75;entryY=1;entryDx=0;entryDy=0;startFill=1;endFill=1;exitX=0.25;exitY=0;exitDx=0;exitDy=0;edgeStyle=orthogonalEdgeStyle;" parent="1" source="V6S-97jJ4UsOQMDGhtXS-13" edge="1" target="V6S-97jJ4UsOQMDGhtXS-20">
          <mxGeometry width="50" height="50" relative="1" as="geometry">
            <mxPoint x="370" y="230" as="sourcePoint" />
            <mxPoint x="360" y="200" as="targetPoint" />
            <Array as="points">
              <mxPoint x="490" y="240" />
              <mxPoint x="385" y="240" />
            </Array>
          </mxGeometry>
        </mxCell>
        <mxCell id="V6S-97jJ4UsOQMDGhtXS-11" value="" style="endArrow=none;startArrow=blockThin;html=1;rounded=0;startFill=1;endFill=0;exitX=0.5;exitY=0;exitDx=0;exitDy=0;edgeStyle=orthogonalEdgeStyle;entryX=0.5;entryY=1;entryDx=0;entryDy=0;" parent="1" source="V6S-97jJ4UsOQMDGhtXS-13" target="V6S-97jJ4UsOQMDGhtXS-21" edge="1">
          <mxGeometry width="50" height="50" relative="1" as="geometry">
            <mxPoint x="510" y="290" as="sourcePoint" />
            <mxPoint x="495" y="200" as="targetPoint" />
            <Array as="points">
              <mxPoint x="515" y="280" />
            </Array>
          </mxGeometry>
        </mxCell>
        <mxCell id="V6S-97jJ4UsOQMDGhtXS-12" value="&lt;b&gt;Docker&lt;/b&gt;" style="text;html=1;strokeColor=none;fillColor=none;align=left;verticalAlign=bottom;whiteSpace=wrap;rounded=0;spacing=0;spacingTop=2;spacingLeft=6;spacingRight=6;spacingBottom=6;" parent="1" vertex="1">
          <mxGeometry x="445" y="325" width="60" height="30" as="geometry" />
        </mxCell>
        <mxCell id="V6S-97jJ4UsOQMDGhtXS-13" value="GX Agent" style="rounded=1;whiteSpace=wrap;html=1;glass=0;strokeWidth=1;fillColor=#D0D2D3;" parent="1" vertex="1">
          <mxGeometry x="465" y="280" width="100" height="40" as="geometry" />
        </mxCell>
        <mxCell id="V6S-97jJ4UsOQMDGhtXS-16" value="" style="sketch=0;aspect=fixed;pointerEvents=1;shadow=0;dashed=0;html=1;strokeColor=none;labelPosition=center;verticalLabelPosition=bottom;verticalAlign=top;align=center;fillColor=#404041;shape=mxgraph.azure.user" parent="1" vertex="1">
          <mxGeometry x="201.6" y="280" width="37.6" height="40" as="geometry" />
        </mxCell>
        <mxCell id="V6S-97jJ4UsOQMDGhtXS-17" value="GX Cloud&lt;br&gt;Web UI" style="rounded=1;whiteSpace=wrap;html=1;strokeWidth=1;fillColor=#FF9B67;" parent="1" vertex="1">
          <mxGeometry x="200" y="90" width="80" height="110" as="geometry" />
        </mxCell>
        <mxCell id="V6S-97jJ4UsOQMDGhtXS-18" value="&lt;b&gt;GX Cloud&lt;/b&gt;" style="text;html=1;strokeColor=none;fillColor=none;align=right;verticalAlign=top;whiteSpace=wrap;rounded=0;spacing=0;spacingLeft=6;spacingTop=2;spacingRight=6;" parent="1" vertex="1">
          <mxGeometry x="540" y="80" width="70" height="30" as="geometry" />
        </mxCell>
        <mxCell id="V6S-97jJ4UsOQMDGhtXS-19" value="GX Cloud Data Storage" style="rounded=1;whiteSpace=wrap;html=1;strokeWidth=1;fillColor=#FF9B67;" parent="1" vertex="1">
          <mxGeometry x="310" y="120" width="160" height="30" as="geometry" />
        </mxCell>
        <mxCell id="V6S-97jJ4UsOQMDGhtXS-20" value="GX Cloud API" style="rounded=1;whiteSpace=wrap;html=1;strokeWidth=1;fillColor=#FF9B67;" parent="1" vertex="1">
          <mxGeometry x="310" y="170" width="100" height="30" as="geometry" />
        </mxCell>
        <mxCell id="V6S-97jJ4UsOQMDGhtXS-21" value="GX Cloud Message Broker" style="rounded=1;whiteSpace=wrap;html=1;strokeWidth=1;fillColor=#FF9B67;" parent="1" vertex="1">
          <mxGeometry x="440" y="170" width="150" height="30" as="geometry" />
        </mxCell>
        <mxCell id="V6S-97jJ4UsOQMDGhtXS-22" value="" style="endArrow=blockThin;html=1;rounded=0;startArrow=blockThin;startFill=1;endFill=1;endSize=3;startSize=3;entryX=0;entryY=0.5;entryDx=0;entryDy=0;" parent="1" target="V6S-97jJ4UsOQMDGhtXS-19" edge="1">
          <mxGeometry width="50" height="50" relative="1" as="geometry">
            <mxPoint x="280" y="134.87" as="sourcePoint" />
            <mxPoint x="300" y="134.87" as="targetPoint" />
          </mxGeometry>
        </mxCell>
        <mxCell id="V6S-97jJ4UsOQMDGhtXS-23" value="" style="endArrow=blockThin;html=1;rounded=0;edgeStyle=orthogonalEdgeStyle;endFill=1;endSize=3;jumpStyle=arc;jumpSize=6;exitX=1;exitY=0.25;exitDx=0;exitDy=0;entryX=0.5;entryY=0;entryDx=0;entryDy=0;" parent="1" source="V6S-97jJ4UsOQMDGhtXS-17" target="V6S-97jJ4UsOQMDGhtXS-21" edge="1">
          <mxGeometry width="50" height="50" relative="1" as="geometry">
            <mxPoint x="500" y="-10" as="sourcePoint" />
            <mxPoint x="650" y="150" as="targetPoint" />
            <Array as="points">
              <mxPoint x="280" y="105" />
              <mxPoint x="515" y="105" />
            </Array>
          </mxGeometry>
        </mxCell>
        <mxCell id="V6S-97jJ4UsOQMDGhtXS-24" value="" style="endArrow=blockThin;startArrow=blockThin;html=1;rounded=0;startFill=1;endFill=1;endSize=3;startSize=3;" parent="1" edge="1">
          <mxGeometry width="50" height="50" relative="1" as="geometry">
            <mxPoint x="359.75" y="170" as="sourcePoint" />
            <mxPoint x="359.75" y="150" as="targetPoint" />
          </mxGeometry>
        </mxCell>
        <mxCell id="bxJoWH1CoQZ6aktRFyOr-31" value="Data Stores" style="text;html=1;strokeColor=none;fillColor=none;align=left;verticalAlign=middle;whiteSpace=wrap;rounded=0;" parent="1" vertex="1">
          <mxGeometry x="674" y="290" width="52.5" height="30" as="geometry" />
        </mxCell>
        <mxCell id="mF11c1VdoZ7-D_w8XB_R-1" value="" style="shape=cylinder3;whiteSpace=wrap;html=1;boundedLbl=1;backgroundOutline=1;size=15;strokeWidth=1;fillColor=#D0D2D3;" parent="1" vertex="1">
          <mxGeometry x="620" y="270" width="50" height="60" as="geometry" />
        </mxCell>
        <mxCell id="V-DehpStQxGO2ir_3sqS-3" value="" style="rounded=0;whiteSpace=wrap;html=1;strokeColor=#929497;fillColor=none;perimeterSpacing=0;" vertex="1" parent="1">
          <mxGeometry x="290" y="260" width="130" height="95" as="geometry" />
        </mxCell>
        <mxCell id="V-DehpStQxGO2ir_3sqS-4" value="&lt;b&gt;Python&lt;/b&gt;" style="text;html=1;strokeColor=none;fillColor=none;align=left;verticalAlign=bottom;whiteSpace=wrap;rounded=0;spacing=0;spacingTop=2;spacingLeft=6;spacingRight=6;spacingBottom=6;" vertex="1" parent="1">
          <mxGeometry x="290" y="325" width="60" height="30" as="geometry" />
        </mxCell>
        <mxCell id="V-DehpStQxGO2ir_3sqS-5" value="GX OSS Client" style="rounded=1;whiteSpace=wrap;html=1;glass=0;strokeWidth=1;fillColor=#D0D2D3;" vertex="1" parent="1">
          <mxGeometry x="310" y="280" width="100" height="40" as="geometry" />
        </mxCell>
        <mxCell id="V-DehpStQxGO2ir_3sqS-6" value="" style="endArrow=blockThin;startArrow=blockThin;html=1;rounded=0;startFill=1;endFill=1;entryX=0;entryY=0.5;entryDx=0;entryDy=0;" edge="1" parent="1" target="V-DehpStQxGO2ir_3sqS-5">
          <mxGeometry width="50" height="50" relative="1" as="geometry">
            <mxPoint x="240" y="300" as="sourcePoint" />
            <mxPoint x="250" y="390" as="targetPoint" />
          </mxGeometry>
        </mxCell>
        <mxCell id="ORVn6D2eQAHGk_hcWQH_-1" value="" style="endArrow=blockThin;startArrow=blockThin;html=1;rounded=0;startFill=1;endFill=1;" edge="1" parent="1" source="V-DehpStQxGO2ir_3sqS-5" target="V6S-97jJ4UsOQMDGhtXS-20">
          <mxGeometry width="50" height="50" relative="1" as="geometry">
            <mxPoint x="320" y="230" as="sourcePoint" />
            <mxPoint x="300" y="230" as="targetPoint" />
          </mxGeometry>
        </mxCell>
      </root>
    </mxGraphModel>
  </diagram>
  <diagram id="6KD0Alq4c7xAnq66J7ub" name="programmatic-orchestrator">
    <mxGraphModel dx="810" dy="498" grid="1" gridSize="10" guides="1" tooltips="1" connect="1" arrows="1" fold="1" page="1" pageScale="1" pageWidth="1100" pageHeight="850" math="0" shadow="0">
      <root>
        <mxCell id="0" />
        <mxCell id="1" parent="0" />
        <mxCell id="79wA89e9NnCezc2LXTsM-32" value="" style="rounded=0;whiteSpace=wrap;html=1;strokeColor=#a6a8ab;fillColor=none;perimeterSpacing=0;" parent="1" vertex="1">
          <mxGeometry x="240" y="250" width="160" height="140" as="geometry" />
        </mxCell>
        <mxCell id="pKo_-XbmdBcV7QkTmMUj-1" value="" style="rounded=0;whiteSpace=wrap;html=1;strokeColor=#A6A8AB;fillColor=none;perimeterSpacing=0;" parent="1" vertex="1">
          <mxGeometry x="440" y="250" width="290" height="200" as="geometry" />
        </mxCell>
        <mxCell id="pKo_-XbmdBcV7QkTmMUj-27" value="" style="shape=hexagon;perimeter=hexagonPerimeter2;whiteSpace=wrap;html=1;fixedSize=1;fillColor=none;strokeColor=#A6A8AB;" parent="1" vertex="1">
          <mxGeometry x="450" y="326" width="150" height="91" as="geometry" />
        </mxCell>
        <mxCell id="pKo_-XbmdBcV7QkTmMUj-6" value="&lt;b&gt;Deployment Environment&lt;/b&gt;" style="text;html=1;strokeColor=none;fillColor=none;align=left;verticalAlign=bottom;whiteSpace=wrap;rounded=0;spacing=8;spacingTop=0;spacingLeft=0;spacingRight=0;spacingBottom=0;" parent="1" vertex="1">
          <mxGeometry x="440" y="420" width="190" height="30" as="geometry" />
        </mxCell>
        <mxCell id="pKo_-XbmdBcV7QkTmMUj-14" value="" style="endArrow=blockThin;startArrow=none;html=1;rounded=0;startFill=0;endFill=1;edgeStyle=orthogonalEdgeStyle;exitX=0;exitY=0.5;exitDx=0;exitDy=0;entryX=0.698;entryY=1.008;entryDx=0;entryDy=0;entryPerimeter=0;" parent="1" source="pKo_-XbmdBcV7QkTmMUj-20" edge="1" target="yuvy65hC9Idy5uh6YItI-5">
          <mxGeometry width="50" height="50" relative="1" as="geometry">
            <mxPoint x="500" y="230" as="sourcePoint" />
            <mxPoint x="410" y="220" as="targetPoint" />
            <Array as="points">
              <mxPoint x="420" y="366" />
              <mxPoint x="420" y="240" />
              <mxPoint x="340" y="240" />
            </Array>
          </mxGeometry>
        </mxCell>
        <mxCell id="pKo_-XbmdBcV7QkTmMUj-19" value="&lt;b&gt;Orchestrator&lt;/b&gt;" style="text;html=1;strokeColor=none;fillColor=none;align=center;verticalAlign=bottom;whiteSpace=wrap;rounded=0;spacing=0;spacingTop=2;spacingLeft=6;spacingRight=6;spacingBottom=6;" parent="1" vertex="1">
          <mxGeometry x="475" y="385.5" width="100" height="30" as="geometry" />
        </mxCell>
        <mxCell id="pKo_-XbmdBcV7QkTmMUj-20" value="GX OSS Client" style="rounded=1;whiteSpace=wrap;html=1;glass=0;strokeWidth=1;fillColor=#D0D2D3;" parent="1" vertex="1">
          <mxGeometry x="475" y="345.5" width="100" height="40" as="geometry" />
        </mxCell>
        <mxCell id="pKo_-XbmdBcV7QkTmMUj-21" value="" style="sketch=0;aspect=fixed;pointerEvents=1;shadow=0;dashed=0;html=1;strokeColor=none;labelPosition=center;verticalLabelPosition=bottom;verticalAlign=top;align=center;fillColor=#404041;shape=mxgraph.azure.user" parent="1" vertex="1">
          <mxGeometry x="169" y="275.5" width="37.6" height="40" as="geometry" />
        </mxCell>
        <mxCell id="pKo_-XbmdBcV7QkTmMUj-22" value="" style="rounded=0;whiteSpace=wrap;html=1;strokeColor=#A6A8AB;fillColor=none;perimeterSpacing=0;" parent="1" vertex="1">
          <mxGeometry x="250" y="260" width="140" height="100" as="geometry" />
        </mxCell>
        <mxCell id="pKo_-XbmdBcV7QkTmMUj-23" value="&lt;b&gt;Python&lt;/b&gt;" style="text;html=1;strokeColor=none;fillColor=none;align=left;verticalAlign=bottom;whiteSpace=wrap;rounded=0;spacing=8;spacingTop=0;spacingLeft=0;spacingRight=0;spacingBottom=0;" parent="1" vertex="1">
          <mxGeometry x="250" y="330" width="60" height="30" as="geometry" />
        </mxCell>
        <mxCell id="pKo_-XbmdBcV7QkTmMUj-26" value="" style="endArrow=blockThin;startArrow=blockThin;html=1;rounded=0;startFill=1;endFill=1;edgeStyle=orthogonalEdgeStyle;" parent="1" edge="1">
          <mxGeometry width="50" height="50" relative="1" as="geometry">
            <mxPoint x="210" y="299.75" as="sourcePoint" />
            <mxPoint x="270" y="299.75" as="targetPoint" />
            <Array as="points" />
          </mxGeometry>
        </mxCell>
        <mxCell id="pKo_-XbmdBcV7QkTmMUj-29" value="" style="endArrow=none;startArrow=blockThin;html=1;rounded=0;startFill=1;endFill=0;entryX=0;entryY=0.5;entryDx=0;entryDy=0;entryPerimeter=0;" parent="1" edge="1" target="79wA89e9NnCezc2LXTsM-30">
          <mxGeometry width="50" height="50" relative="1" as="geometry">
            <mxPoint x="574.7" y="290" as="sourcePoint" />
            <mxPoint x="634.4000000000001" y="290" as="targetPoint" />
          </mxGeometry>
        </mxCell>
        <mxCell id="yuvy65hC9Idy5uh6YItI-1" value="" style="rounded=0;whiteSpace=wrap;html=1;strokeColor=#A6A8AB;fillColor=none;dashed=1;dashPattern=8 8;" parent="1" vertex="1">
          <mxGeometry x="140" y="70" width="430" height="140" as="geometry" />
        </mxCell>
        <mxCell id="yuvy65hC9Idy5uh6YItI-2" value="GX Cloud&lt;br&gt;Web UI" style="rounded=1;whiteSpace=wrap;html=1;strokeWidth=1;fillColor=#FF9B67;" parent="1" vertex="1">
          <mxGeometry x="160" y="80" width="80" height="110" as="geometry" />
        </mxCell>
        <mxCell id="yuvy65hC9Idy5uh6YItI-3" value="&lt;b&gt;GX Cloud&lt;/b&gt;" style="text;html=1;strokeColor=none;fillColor=none;align=right;verticalAlign=top;whiteSpace=wrap;rounded=0;spacing=0;spacingLeft=6;spacingTop=2;spacingRight=6;" parent="1" vertex="1">
          <mxGeometry x="500" y="70" width="70" height="30" as="geometry" />
        </mxCell>
        <mxCell id="yuvy65hC9Idy5uh6YItI-4" value="GX Cloud Data Storage" style="rounded=1;whiteSpace=wrap;html=1;strokeWidth=1;fillColor=#FF9B67;" parent="1" vertex="1">
          <mxGeometry x="270" y="110" width="160" height="30" as="geometry" />
        </mxCell>
        <mxCell id="yuvy65hC9Idy5uh6YItI-5" value="GX Cloud API" style="rounded=1;whiteSpace=wrap;html=1;strokeWidth=1;fillColor=#FF9B67;" parent="1" vertex="1">
          <mxGeometry x="270" y="160" width="100" height="30" as="geometry" />
        </mxCell>
        <mxCell id="yuvy65hC9Idy5uh6YItI-6" value="GX Cloud Message Broker" style="rounded=1;whiteSpace=wrap;html=1;strokeWidth=1;fillColor=#FF9B67;" parent="1" vertex="1">
          <mxGeometry x="400" y="160" width="150" height="30" as="geometry" />
        </mxCell>
        <mxCell id="yuvy65hC9Idy5uh6YItI-7" value="" style="endArrow=blockThin;html=1;rounded=0;startArrow=blockThin;startFill=1;endFill=1;endSize=3;startSize=3;entryX=0;entryY=0.5;entryDx=0;entryDy=0;" parent="1" target="yuvy65hC9Idy5uh6YItI-4" edge="1">
          <mxGeometry width="50" height="50" relative="1" as="geometry">
            <mxPoint x="240" y="124.86999999999999" as="sourcePoint" />
            <mxPoint x="260" y="124.86999999999999" as="targetPoint" />
          </mxGeometry>
        </mxCell>
        <mxCell id="yuvy65hC9Idy5uh6YItI-9" value="" style="endArrow=blockThin;html=1;rounded=0;edgeStyle=orthogonalEdgeStyle;endFill=1;endSize=3;jumpStyle=arc;jumpSize=6;exitX=1;exitY=0.25;exitDx=0;exitDy=0;entryX=0.5;entryY=0;entryDx=0;entryDy=0;" parent="1" source="yuvy65hC9Idy5uh6YItI-2" target="yuvy65hC9Idy5uh6YItI-6" edge="1">
          <mxGeometry width="50" height="50" relative="1" as="geometry">
            <mxPoint x="460" y="-20" as="sourcePoint" />
            <mxPoint x="610" y="140" as="targetPoint" />
            <Array as="points">
              <mxPoint x="240" y="95" />
              <mxPoint x="475" y="95" />
            </Array>
          </mxGeometry>
        </mxCell>
        <mxCell id="LiL0Rg9OvwGPr37xNp_3-4" value="" style="endArrow=blockThin;startArrow=blockThin;html=1;rounded=0;startFill=1;endFill=1;endSize=3;startSize=3;" parent="1" edge="1">
          <mxGeometry width="50" height="50" relative="1" as="geometry">
            <mxPoint x="319.88" y="160" as="sourcePoint" />
            <mxPoint x="319.88" y="140" as="targetPoint" />
          </mxGeometry>
        </mxCell>
        <mxCell id="6jYjrEv680PqfOlAxG3I-1" value="" style="endArrow=blockThin;startArrow=blockThin;html=1;rounded=0;entryX=0.5;entryY=1;entryDx=0;entryDy=0;startFill=1;endFill=1;" parent="1" edge="1">
          <mxGeometry width="50" height="50" relative="1" as="geometry">
            <mxPoint x="190" y="260" as="sourcePoint" />
            <mxPoint x="190" y="190" as="targetPoint" />
          </mxGeometry>
        </mxCell>
        <mxCell id="79wA89e9NnCezc2LXTsM-29" value="Data Stores" style="text;html=1;strokeColor=none;fillColor=none;align=left;verticalAlign=middle;whiteSpace=wrap;rounded=0;" parent="1" vertex="1">
          <mxGeometry x="674" y="276" width="46" height="30" as="geometry" />
        </mxCell>
        <mxCell id="79wA89e9NnCezc2LXTsM-30" value="" style="shape=cylinder3;whiteSpace=wrap;html=1;boundedLbl=1;backgroundOutline=1;size=15;strokeWidth=1;fillColor=#D0D2D3;" parent="1" vertex="1">
          <mxGeometry x="620" y="260" width="50" height="60" as="geometry" />
        </mxCell>
        <mxCell id="79wA89e9NnCezc2LXTsM-33" value="&lt;b&gt;Local Environment&lt;/b&gt;" style="text;html=1;strokeColor=none;fillColor=none;align=left;verticalAlign=bottom;whiteSpace=wrap;rounded=0;spacing=8;spacingTop=0;spacingLeft=0;spacingRight=0;spacingBottom=0;" parent="1" vertex="1">
          <mxGeometry x="240" y="360" width="150" height="30" as="geometry" />
        </mxCell>
        <mxCell id="79wA89e9NnCezc2LXTsM-34" value="" style="sketch=0;pointerEvents=1;shadow=0;dashed=0;html=1;strokeColor=none;fillColor=#505050;labelPosition=center;verticalLabelPosition=bottom;verticalAlign=top;outlineConnect=0;align=center;shape=mxgraph.office.users.users_two;" parent="1" vertex="1">
          <mxGeometry x="30.30000000000001" y="100" width="57" height="43" as="geometry" />
        </mxCell>
        <mxCell id="79wA89e9NnCezc2LXTsM-35" value="" style="endArrow=blockThin;startArrow=blockThin;html=1;rounded=0;startFill=1;endFill=1;exitX=0.5;exitY=0;exitDx=0;exitDy=0;" parent="1" edge="1">
          <mxGeometry width="50" height="50" relative="1" as="geometry">
            <mxPoint x="97.30000000000001" y="121" as="sourcePoint" />
            <mxPoint x="160" y="121" as="targetPoint" />
          </mxGeometry>
        </mxCell>
        <mxCell id="79wA89e9NnCezc2LXTsM-36" value="" style="endArrow=blockThin;startArrow=blockThin;html=1;rounded=0;startFill=1;endFill=1;exitX=0.5;exitY=0;exitDx=0;exitDy=0;" parent="1" edge="1" target="yuvy65hC9Idy5uh6YItI-5" source="pKo_-XbmdBcV7QkTmMUj-24">
          <mxGeometry width="50" height="50" relative="1" as="geometry">
            <mxPoint x="319.75" y="270" as="sourcePoint" />
            <mxPoint x="260" y="230" as="targetPoint" />
          </mxGeometry>
        </mxCell>
        <mxCell id="pKo_-XbmdBcV7QkTmMUj-24" value="GX OSS Client" style="rounded=1;whiteSpace=wrap;html=1;glass=0;strokeWidth=1;fillColor=#D0D2D3;" parent="1" vertex="1">
          <mxGeometry x="270" y="280" width="100" height="40" as="geometry" />
        </mxCell>
        <mxCell id="Prg3RM4tq6-tUfm7Zzjq-2" value="GX Agent" style="rounded=1;whiteSpace=wrap;html=1;glass=0;strokeWidth=1;fillColor=#D0D2D3;" vertex="1" parent="1">
          <mxGeometry x="475" y="270" width="100" height="40" as="geometry" />
        </mxCell>
        <mxCell id="IVu_bvz1Mba-LvlRABdC-2" value="" style="endArrow=none;startArrow=blockThin;html=1;rounded=0;startFill=1;endFill=0;entryX=0.5;entryY=1;entryDx=0;entryDy=0;entryPerimeter=0;exitX=1;exitY=0.5;exitDx=0;exitDy=0;edgeStyle=orthogonalEdgeStyle;" edge="1" parent="1" source="pKo_-XbmdBcV7QkTmMUj-20" target="79wA89e9NnCezc2LXTsM-30">
          <mxGeometry width="50" height="50" relative="1" as="geometry">
            <mxPoint x="584.7" y="300" as="sourcePoint" />
            <mxPoint x="663" y="300" as="targetPoint" />
            <Array as="points">
              <mxPoint x="645" y="366" />
            </Array>
          </mxGeometry>
        </mxCell>
        <mxCell id="hPWT21rHX82GqhYPNw4c-1" value="" style="endArrow=blockThin;startArrow=none;html=1;rounded=0;startFill=0;endFill=1;edgeStyle=orthogonalEdgeStyle;exitX=0;exitY=0.5;exitDx=0;exitDy=0;entryX=0.808;entryY=0.992;entryDx=0;entryDy=0;entryPerimeter=0;" edge="1" parent="1" source="Prg3RM4tq6-tUfm7Zzjq-2" target="yuvy65hC9Idy5uh6YItI-5">
          <mxGeometry width="50" height="50" relative="1" as="geometry">
            <mxPoint x="510" y="376" as="sourcePoint" />
            <mxPoint x="370" y="220" as="targetPoint" />
            <Array as="points">
              <mxPoint x="430" y="290" />
              <mxPoint x="430" y="230" />
              <mxPoint x="351" y="230" />
              <mxPoint x="351" y="190" />
            </Array>
          </mxGeometry>
        </mxCell>
        <mxCell id="hPWT21rHX82GqhYPNw4c-2" value="" style="endArrow=none;startArrow=blockThin;html=1;rounded=0;startFill=1;endFill=0;exitX=0.5;exitY=0;exitDx=0;exitDy=0;" edge="1" parent="1">
          <mxGeometry width="50" height="50" relative="1" as="geometry">
            <mxPoint x="524.45" y="270" as="sourcePoint" />
            <mxPoint x="524" y="190" as="targetPoint" />
          </mxGeometry>
        </mxCell>
      </root>
    </mxGraphModel>
  </diagram>
</mxfile>
